<?xml version="1.0" encoding="UTF-8"?>
<svg version="1.1" xmlns="http://www.w3.org/2000/svg" width="760" height="1059">
<path d="M0 0 C0.78849063 -0.00175304 1.57698127 -0.00350607 2.38936555 -0.00531223 C5.0595972 -0.01000347 7.72977514 -0.00749876 10.40000916 -0.00507832 C12.32246731 -0.00694472 14.24492508 -0.00924473 16.16738224 -0.01194364 C21.47214002 -0.01808913 26.7768821 -0.01792483 32.08164263 -0.01674926 C37.79403968 -0.01654595 43.5064316 -0.02205732 49.21882629 -0.02680683 C60.41809473 -0.03512873 71.6173579 -0.03786236 82.81662917 -0.03841921 C91.91458318 -0.03889359 101.01253544 -0.04094444 110.11048889 -0.04411983 C131.67999276 -0.05149546 153.249495 -0.05764422 174.81900024 -0.05712128 C175.50923066 -0.0571057 176.19946107 -0.05709012 176.91060755 -0.05707407 C180.40924194 -0.05699096 183.90787633 -0.05689192 187.40651071 -0.05678936 C188.44883493 -0.05675944 188.44883493 -0.05675944 189.5122162 -0.05672892 C190.9174387 -0.05668848 192.32266121 -0.05664669 193.72788371 -0.05660353 C215.59996277 -0.05599052 237.47202633 -0.06350109 259.34410095 -0.07717609 C283.89793689 -0.09252136 308.45176167 -0.1011306 333.00560284 -0.10021287 C346.01379792 -0.09988013 359.02197553 -0.10266068 372.03016663 -0.11339092 C383.10309972 -0.12246593 394.17600742 -0.12469598 405.24894261 -0.1178815 C410.90376614 -0.11460118 416.55854086 -0.11461368 422.21335983 -0.12323475 C427.38226274 -0.13103434 432.55107762 -0.12973615 437.71997821 -0.12095062 C439.59746553 -0.11940107 441.47495921 -0.12128568 443.35243905 -0.12681069 C445.88959937 -0.13378693 448.42644361 -0.12864405 450.96359253 -0.12025452 C452.07629141 -0.12770679 452.07629141 -0.12770679 453.21146905 -0.13530961 C458.25350006 -0.09966175 458.25350006 -0.09966175 460.48179626 2.12863445 C460.73347855 4.89915752 460.73347855 4.89915752 460.73576355 8.50583172 C460.73888353 9.16766492 460.74200351 9.82949812 460.74521804 10.51138687 C460.75322489 12.73936084 460.74686411 14.96706448 460.74058533 17.1950407 C460.743294 18.78813112 460.74685424 20.38122028 460.75120544 21.97430706 C460.76034643 26.30892648 460.75677818 30.64345102 460.75044727 34.97807217 C460.7453961 39.50685927 460.75007626 44.03563806 460.7532196 48.56442547 C460.75686183 56.17080429 460.75205343 63.77714433 460.74253845 71.38351727 C460.73165341 80.18699184 460.7351788 88.9903738 460.74619126 97.79384613 C460.75525684 105.34205864 460.756553 112.89024321 460.75131392 120.4384594 C460.7481902 124.95117684 460.74779588 129.46385069 460.7543869 133.97656536 C460.76014916 138.21841185 460.75618413 142.46013851 460.74459839 146.70197201 C460.74194578 148.26208707 460.74272708 149.82221215 460.74712372 151.38232327 C460.7525571 153.50549905 460.7457724 155.62828641 460.73576355 157.75143719 C460.7350095 158.94163967 460.73425545 160.13184216 460.73347855 161.35811138 C460.48179626 164.12863445 460.48179626 164.12863445 458.48179626 166.12863445 C455.43196106 166.36914349 455.43196106 166.36914349 451.46177673 166.35568523 C450.73972046 166.35597729 450.01766418 166.35626934 449.27372742 166.35657024 C446.88202485 166.35517454 444.49063205 166.33960228 442.09898376 166.32394695 C440.44274567 166.32021767 438.78650537 166.3173703 437.13026428 166.31537151 C432.76707386 166.30772834 428.4040162 166.28807405 424.0408783 166.26596355 C419.59021297 166.2455198 415.13952624 166.23637295 410.68882751 166.2262907 C401.95308945 166.20482875 393.21745936 166.17068463 384.48179626 166.12863445 C384.91533417 167.22342113 385.34887207 168.31820782 385.79554749 169.44616985 C391.09698954 182.85813811 395.9731849 196.41900985 400.8442955 209.99185848 C402.0412076 213.32487197 403.24124752 216.65675892 404.44102478 219.98874187 C408.19322121 230.41120558 411.93970092 240.83572279 415.68475819 251.26075363 C418.76025959 259.82184483 421.83787585 268.38217177 424.91929626 276.94113445 C425.15086803 277.5844207 425.3824398 278.22770695 425.6210289 278.89048672 C431.63002852 295.57994426 437.71247768 312.23752716 443.98622131 328.8294096 C450.01475099 344.77560706 455.83951461 360.79350231 461.64985657 376.82031536 C467.35219102 392.54771081 473.09953887 408.25682328 478.91929626 423.94113445 C485.33772095 441.243978 491.64817127 458.584391 497.91929626 475.94113445 C504.33336352 493.68963725 510.76076506 511.43293278 517.25868225 529.1509428 C518.01928088 531.22522452 518.7791348 533.29977948 519.53816223 535.37463665 C524.64989033 553.89682857 524.64989033 553.89682857 533.48179626 570.12863445 C556.91179626 570.45863445 580.34179626 570.78863445 604.48179626 571.12863445 C604.48179626 625.90863445 604.48179626 680.68863445 604.48179626 737.12863445 C525.05144491 737.20929715 525.05144491 737.20929715 491.94468689 737.2262907 C484.36631766 737.23020666 476.78794852 737.23424768 469.20957947 737.23849773 C467.78477275 737.23928898 467.78477275 737.23928898 466.33118206 737.24009621 C450.98109355 737.24880314 435.63101997 737.26457535 420.28094032 737.28294004 C404.53646399 737.30161998 388.79199549 737.31274713 373.04750854 737.31681144 C363.32641761 737.31956047 353.60536886 737.32825392 343.88429091 737.34446739 C337.22501474 737.35501076 330.56576049 737.35824111 323.90647658 737.35563721 C320.06009485 737.35435177 316.213787 737.35637053 312.36741829 737.3670454 C308.20393185 737.37851646 304.04060425 737.37462885 299.87710571 737.36914349 C298.04006758 737.37788201 298.04006758 737.37788201 296.16591758 737.38679707 C294.50060326 737.38082393 294.50060326 737.38082393 292.80164623 737.37473011 C291.83981464 737.37548955 290.87798304 737.37624899 289.88700503 737.37703145 C287.48179626 737.12863445 287.48179626 737.12863445 284.48179626 735.12863445 C284.10706615 732.35811138 284.10706615 732.35811138 284.10757446 728.75143719 C284.10360006 728.08960399 284.09962565 727.42777079 284.09553081 726.74588203 C284.08587022 724.51778196 284.09774791 722.29031093 284.10948181 720.0622282 C284.10705507 718.469137 284.1033369 716.87604731 284.09841919 715.28296185 C284.08899033 710.94829263 284.09845225 706.61384842 284.11175132 702.27919674 C284.12304163 697.75041182 284.11896019 693.22163838 284.11700439 688.69284344 C284.11612065 681.08644196 284.12721858 673.48012948 284.14561462 665.87375164 C284.16678349 657.07027198 284.17029261 648.26692273 284.16405267 639.46342278 C284.15836476 631.00692994 284.16399789 622.55048319 284.17522621 614.093997 C284.17987982 610.48955721 284.18074277 606.88514553 284.17864037 603.28070354 C284.17676146 599.03884673 284.18483059 594.7971233 284.20070076 590.5552969 C284.20495577 588.99518542 284.20578604 587.43506045 284.20301056 585.87494564 C284.1998055 583.7517596 284.20882759 581.62897632 284.22109985 579.50583172 C284.22315272 578.31562923 284.22520559 577.12542675 284.22732067 575.89915752 C284.48179626 573.12863445 284.48179626 573.12863445 286.48179626 571.12863445 C289.11402893 570.88812542 289.11402893 570.88812542 292.49205017 570.90158367 C294.38378464 570.90181026 294.38378464 570.90181026 296.31373596 570.90204144 C297.69527849 570.91225548 299.07681941 570.92268748 300.45835876 570.93332195 C301.86797384 570.93705157 303.2775915 570.93989879 304.68721008 570.94189739 C308.39939009 570.9495379 312.11141387 570.96918984 315.8235321 570.99130535 C319.61064033 571.01175487 323.39777376 571.02089718 327.18492126 571.0309782 C334.61728419 571.05243546 342.04951835 571.08657629 349.48179626 571.12863445 C349.14970154 570.13235027 348.81760681 569.13606609 348.47544861 568.10959148 C342.81089783 551.11593914 337.14634705 534.1222868 331.48179626 517.12863445 C261.19179626 517.12863445 190.90179626 517.12863445 118.48179626 517.12863445 C113.20179626 532.96863445 107.92179626 548.80863445 102.48179626 565.12863445 C101.82179626 566.77863445 101.16179626 568.42863445 100.48179626 570.12863445 C132.16179626 570.62363445 132.16179626 570.62363445 164.48179626 571.12863445 C166.56046263 575.28596719 166.73280918 577.05079055 166.73576355 581.58102703 C166.73888353 582.22682374 166.74200351 582.87262045 166.74521804 583.53798676 C166.75318907 585.69980619 166.74687803 587.86134423 166.74058533 590.0231657 C166.74329559 591.57389776 166.74685672 593.12462853 166.75120544 594.67535686 C166.76032751 598.88603016 166.75678594 603.09660552 166.75044727 607.30728054 C166.74538635 611.71233415 166.75007899 616.11737934 166.7532196 620.52243328 C166.75685898 627.92015369 166.7520609 635.31783417 166.74253845 642.71554852 C166.73165396 651.27022565 166.73517955 659.82480745 166.74619126 668.37948227 C166.75526496 675.72224812 166.75654901 683.06498526 166.75131392 690.4077549 C166.74819468 694.79419232 166.74778365 699.18058492 166.7543869 703.56701946 C166.76016092 707.69070814 166.75616245 711.81427381 166.74459839 715.93794918 C166.7419521 717.4520742 166.74271637 718.96620955 166.74712372 720.48033047 C166.75258192 722.5457744 166.74574203 724.61082318 166.73576355 726.67624187 C166.73463247 728.4106377 166.73463247 728.4106377 166.73347855 730.18007183 C166.48417858 733.10072468 165.85129436 734.60227647 164.48179626 737.12863445 C124.00453214 737.19723856 83.52727557 737.25013167 43.04996497 737.28183044 C38.27577713 737.28558275 33.5015894 737.2894657 28.72740173 737.29342937 C27.77691086 737.29421631 26.82641998 737.29500324 25.84712635 737.29581401 C10.43872717 737.3088828 -4.96963857 737.33254471 -20.37801789 737.36009284 C-36.17785884 737.38810613 -51.97768223 737.40480206 -67.777547 737.41089994 C-77.53397952 737.41502486 -87.29031755 737.42807243 -97.046721 737.45238385 C-103.72888946 737.46819078 -110.41100877 737.47304631 -117.09319459 737.46913859 C-120.95366522 737.46720913 -124.81397027 737.47025286 -128.67441177 737.48625088 C-132.85144605 737.50343535 -137.02812365 737.49763236 -141.20518494 737.489398 C-142.43668081 737.49813653 -143.66817669 737.50687505 -144.93699062 737.51587838 C-146.04869251 737.50990523 -147.1603944 737.50393209 -148.30578423 737.49777794 C-149.2710333 737.4989171 -150.23628238 737.50005626 -151.23078144 737.50122994 C-151.98563079 737.37827343 -152.74048015 737.25531692 -153.51820374 737.12863445 C-155.90878582 733.54276132 -155.76943282 731.97421784 -155.77217102 727.71383953 C-155.775291 727.06002458 -155.77841098 726.40620962 -155.78162551 725.73258209 C-155.78961468 723.53768543 -155.78327843 721.34306452 -155.7769928 719.1481657 C-155.77970226 717.57625447 -155.78326293 716.0043445 -155.78761292 714.43243694 C-155.79674457 710.15979059 -155.79318948 705.88724063 -155.78685474 701.61459255 C-155.78179877 697.14767219 -155.78648507 692.68076021 -155.78962708 688.21383953 C-155.79326789 680.71178992 -155.78846459 673.20977966 -155.77894592 665.70773602 C-155.76806115 657.02866017 -155.77158664 648.34967828 -155.78259873 639.67060471 C-155.79166831 632.22511553 -155.7929585 624.77965467 -155.7877214 617.33416176 C-155.78459988 612.88458433 -155.78419733 608.4350511 -155.79079437 603.98547649 C-155.79656242 599.80270892 -155.7925809 595.62006274 -155.78100586 591.43730831 C-155.77835637 589.90018827 -155.77912928 588.36305806 -155.78353119 586.82594204 C-155.78897678 584.73163219 -155.78216487 582.6377141 -155.77217102 580.54342937 C-155.77141697 579.37019619 -155.77066292 578.19696301 -155.76988602 576.9881773 C-155.51820374 574.12863445 -155.51820374 574.12863445 -153.51820374 571.12863445 C-150.54429626 570.72990704 -150.54429626 570.72990704 -146.68177795 570.69626141 C-145.97922882 570.68606976 -145.27667969 570.67587811 -144.55284119 570.66537762 C-142.22611127 570.63513584 -139.89979224 570.62596506 -137.57289124 570.6169157 C-135.96147786 570.60007722 -134.35007769 570.58192811 -132.73869324 570.56251812 C-128.49397405 570.51492138 -124.24930836 570.48517488 -120.00440979 570.45907879 C-115.67426482 570.42932182 -111.34430441 570.38277492 -107.01429749 570.33761883 C-98.51569003 570.25147578 -90.01706596 570.18417977 -81.51820374 570.12863445 C-81.257939 569.11931362 -81.257939 569.11931362 -80.99241638 568.08960247 C-79.24609888 561.48306142 -77.181124 555.08839222 -74.80726624 548.68332195 C-74.44738617 547.70104122 -74.0875061 546.71876049 -73.71672058 545.70671368 C-72.52988793 542.47074149 -71.33657055 539.23720204 -70.14320374 536.00363445 C-69.29288248 533.68907909 -68.44295617 531.3743786 -67.59339905 529.05954266 C-64.90787084 521.74694979 -62.21342693 514.43765837 -59.51820374 507.12863445 C-58.65908634 504.79744203 -57.80003574 502.466225 -56.9410553 500.13498211 C-53.94724624 492.01029943 -50.95304149 483.88576253 -47.95765686 475.76166058 C-40.99347993 456.87264864 -34.0516509 437.97559393 -27.14320374 419.06613445 C-26.78680124 418.0907025 -26.78680124 418.0907025 -26.4231987 417.09556484 C-18.48603095 395.36902561 -10.64978476 373.60713274 -2.84732437 351.83190823 C3.92755099 332.92571607 10.79742299 314.05919577 17.838974 295.25046062 C22.45367524 282.92138576 26.99045274 270.5656754 31.48179626 258.19113445 C31.81043671 257.2860313 32.13907715 256.38092815 32.47767639 255.44839764 C35.5161297 247.07875583 38.54905956 238.70711756 41.57847595 230.33420086 C43.33255473 225.48615441 45.08896905 220.63895873 46.84654236 215.79217815 C47.80898788 213.13559709 48.76853038 210.47798147 49.72789001 207.82028484 C54.78612568 193.84848773 60.11014904 179.9826094 65.48179626 166.12863445 C64.09451073 166.13196537 64.09451073 166.13196537 62.67919922 166.13536358 C53.98227039 166.15536358 45.28534924 166.17060709 36.58840275 166.18044662 C32.11674077 166.18567519 27.64509773 166.19277234 23.17344666 166.20407391 C18.86167654 166.21490374 14.54992468 166.22091149 10.23814201 166.2235117 C8.58943329 166.22536577 6.94072561 166.22898605 5.29202461 166.23436451 C2.99075755 166.24157623 0.68956687 166.24262534 -1.61170959 166.24215984 C-2.92409103 166.24438046 -4.23647247 166.24660107 -5.58862305 166.24888897 C-8.51820374 166.12863445 -8.51820374 166.12863445 -9.51820374 165.12863445 C-9.61509105 163.01503128 -9.64007215 160.89812776 -9.63845825 158.78230572 C-9.63973989 157.7764702 -9.63973989 157.7764702 -9.64104742 156.75031477 C-9.6427041 154.48699048 -9.63717781 152.22373911 -9.63172913 149.96042156 C-9.63144727 148.34453108 -9.63160496 146.72864046 -9.63217163 145.11275005 C-9.63245966 140.71211205 -9.62656203 136.31150106 -9.61959767 131.91086936 C-9.61336507 127.31708235 -9.61276041 122.72329479 -9.61157227 118.1295042 C-9.60845867 109.42428674 -9.60024491 100.71908177 -9.59022278 92.01386982 C-9.57906251 82.10593527 -9.57355141 72.19800014 -9.56852734 62.29006088 C-9.55806232 41.90291175 -9.54046234 21.51577389 -9.51820374 1.12863445 C-6.48155365 -0.38969059 -3.33103228 -0.00922936 0 0 Z M33.48179626 43.12863445 C33.3814576 45.61817142 33.34561684 48.07998399 33.35240173 50.5700407 C33.35064941 51.34886608 33.34889709 52.12769146 33.34709167 52.93011761 C33.34267277 55.51714556 33.34561127 58.10410574 33.34898376 60.69113445 C33.34831074 62.48092951 33.34734072 64.27072448 33.34608459 66.06051922 C33.34460757 69.81663156 33.34676232 73.57272017 33.35142517 77.32882977 C33.35712246 82.15463939 33.35384348 86.9803934 33.34785271 91.80620098 C33.34424722 95.50351668 33.34538562 99.2008191 33.3479805 102.89813519 C33.3486498 104.67802213 33.34782123 106.45791027 33.34550095 108.23779583 C33.34297461 110.72097268 33.34681472 113.2040582 33.35240173 115.6872282 C33.34936539 116.80156734 33.34936539 116.80156734 33.3462677 117.93841839 C33.06021176 121.31985659 33.06021176 121.31985659 34.48179626 124.12863445 C37.31140345 124.25386524 40.11778963 124.31472673 42.94883728 124.33395672 C43.83655823 124.34385632 44.72427917 124.35375591 45.63890076 124.3639555 C48.58780708 124.3956693 51.53672955 124.42036679 54.48570251 124.4450407 C56.52452017 124.46560171 58.56333348 124.48659794 60.60214233 124.50801373 C65.97959382 124.56332256 71.35708433 124.61269283 76.73460388 124.66086102 C82.21742748 124.71101187 87.7001941 124.76673135 93.18296814 124.82199383 C103.94919556 124.9296831 114.71547236 125.03110399 125.48179626 125.12863445 C124.73294474 130.0204407 123.4284868 134.44192057 121.70054626 139.06613445 C121.41572891 139.84127392 121.13091156 140.61641338 120.83746338 141.41504192 C119.89057975 143.98811561 118.93616551 146.55832882 117.98179626 149.12863445 C117.30383039 150.966838 116.62635046 152.80522084 115.94932556 154.64377117 C114.15807279 159.50385163 112.36036415 164.36151514 110.56034851 169.21835613 C107.81566673 176.6243839 105.07586853 184.03222199 102.33543396 191.4398222 C101.63586231 193.33050707 100.93607052 195.2211105 100.23606873 197.11163616 C93.91379075 214.18895228 87.68161847 231.29821397 81.47093201 248.4163847 C75.04970421 266.11155813 68.56624072 283.78285386 62.04429626 301.44113445 C54.91381366 320.75014106 47.85240301 340.0828527 40.85679626 359.44113445 C40.42153625 360.64556194 39.98627625 361.84998943 39.53782654 363.09091473 C39.10393616 364.2915556 38.67004578 365.49219646 38.2230072 366.72922039 C26.13734619 400.16924908 13.90380067 433.55493432 1.63374329 466.9276762 C-4.65184083 484.0255539 -10.9118684 501.13269095 -17.15953064 518.24445248 C-17.88981669 520.24435895 -18.62035193 522.24417423 -19.35096741 524.24396038 C-24.45953124 538.22725901 -29.55574633 552.21479883 -34.6103096 566.21771908 C-36.22173214 570.68037411 -37.8363738 575.1418666 -39.45014954 579.60367107 C-40.74153319 583.17977821 -42.02716429 586.75791883 -43.31263733 590.33615398 C-44.09442392 592.49885187 -44.87647246 594.66145509 -45.65882874 596.82394695 C-46.00775177 597.80105633 -46.3566748 598.7781657 -46.71617126 599.78488445 C-47.04303925 600.68481121 -47.36990723 601.58473797 -47.7066803 602.51193523 C-47.9859436 603.28788036 -48.26520691 604.06382549 -48.55293274 604.86328411 C-49.6984615 607.55167315 -50.72291881 609.80519674 -52.51820374 612.12863445 C-55.07414246 612.76114178 -55.07414246 612.76114178 -58.16712952 612.77218914 C-59.32487885 612.78860455 -60.48262817 612.80501995 -61.67546082 612.82193279 C-63.55054825 612.81132824 -63.55054825 612.81132824 -65.46351624 612.80050945 C-67.41984562 612.81998429 -69.37617498 612.83946237 -71.33250237 612.85913754 C-74.07254104 612.88030934 -76.81239972 612.87843519 -79.55250549 612.87723064 C-84.35619503 612.8804561 -89.1597247 612.9230726 -93.96324158 612.96097088 C-96.52173176 612.97882198 -99.08028813 612.98902657 -101.63883972 612.99112225 C-102.79028473 612.99492901 -103.94172974 612.99873577 -105.12806702 613.00265789 C-106.14716156 613.00312115 -107.1662561 613.0035844 -108.2162323 613.0040617 C-110.48187474 612.86968412 -110.48187474 612.86968412 -111.51820374 614.12863445 C-111.6185424 616.61817142 -111.65438316 619.07998399 -111.64759827 621.5700407 C-111.64935059 622.34886608 -111.65110291 623.12769146 -111.65290833 623.93011761 C-111.65732723 626.51714556 -111.65438873 629.10410574 -111.65101624 631.69113445 C-111.65168926 633.48092951 -111.65265928 635.27072448 -111.65391541 637.06051922 C-111.65539243 640.81663156 -111.65323768 644.57272017 -111.64857483 648.32882977 C-111.64287754 653.15463939 -111.64615652 657.9803934 -111.65214729 662.80620098 C-111.65575278 666.50351668 -111.65461438 670.2008191 -111.6520195 673.89813519 C-111.6513502 675.67802213 -111.65217877 677.45791027 -111.65449905 679.23779583 C-111.65702539 681.72097268 -111.65318528 684.2040582 -111.64759827 686.6872282 C-111.6496225 687.43012096 -111.65164673 688.17301373 -111.6537323 688.93841839 C-111.93978824 692.31985659 -111.93978824 692.31985659 -110.51820374 695.12863445 C-107.551817 695.22884548 -104.60863526 695.2630167 -101.64175415 695.2556181 C-100.69901026 695.25717809 -99.75626637 695.25873808 -98.78495449 695.26034534 C-95.6004003 695.26435972 -92.41589311 695.261164 -89.2313385 695.25802898 C-86.95860262 695.25938284 -84.68586696 695.26116268 -82.41313171 695.26333904 C-76.22109991 695.2679155 -70.02908469 695.26612288 -63.83705258 695.26295996 C-57.3717146 695.26043714 -50.90637808 695.2627737 -44.44104004 695.26434612 C-32.8835744 695.26628506 -21.32611727 695.26316712 -9.76865297 695.25808679 C0.71823556 695.2536198 11.20511302 695.25439378 21.69200134 695.25900555 C33.85722898 695.26435285 46.02244793 695.26635124 58.18767697 695.26339328 C64.63200176 695.26183067 71.07631892 695.2616363 77.52064323 695.26492977 C83.57881686 695.26780931 89.63696949 695.26583124 95.69514084 695.26003551 C97.924468 695.25870831 100.15379692 695.25910137 102.3831234 695.26129818 C105.41489415 695.26401124 108.44659669 695.26062658 111.47836304 695.2556181 C112.37066429 695.25784882 113.26296554 695.26007954 114.18230623 695.26237786 C118.46744156 695.37563602 118.46744156 695.37563602 122.48179626 694.12863445 C122.50491986 683.7152052 122.52271143 673.30178202 122.53360844 662.88833237 C122.53883723 658.05346619 122.54593481 653.21861751 122.55723572 648.38376141 C122.56806473 643.72186326 122.57407313 639.05998199 122.57667351 634.39807224 C122.57852773 632.61539157 122.58214829 630.83271186 122.58752632 629.05003834 C122.59473695 626.56197485 122.5957872 624.07398202 122.59532166 621.58590984 C122.59891693 620.84144604 122.60251221 620.09698223 122.60621643 619.32995892 C122.90160623 615.94295562 122.90160623 615.94295562 121.48179626 613.12863445 C118.98780562 613.00365831 116.52011297 612.94260565 114.02452087 612.92331219 C112.85387337 612.90846279 112.85387337 612.90846279 111.65957642 612.89331341 C109.06779564 612.8616067 106.4759965 612.83690495 103.88414001 612.8122282 C102.09194449 612.79166658 100.29975389 612.77067033 98.50756836 612.74925518 C93.78114306 612.69395269 89.05467341 612.64457962 84.32817078 612.59640789 C79.50889622 612.54625241 74.68968639 612.49053534 69.87046814 612.43527508 C60.40763276 612.32759356 50.94474127 612.22617094 41.48179626 612.12863445 C42.91042067 605.04372074 44.96106359 598.34300673 47.30601501 591.51144695 C47.68434982 590.39746029 48.06268463 589.28347363 48.45248413 588.13572979 C49.6866135 584.50670665 50.92777648 580.88013522 52.16929626 577.25363445 C52.81293825 575.36516407 53.45657803 573.4766929 54.09980011 571.58807945 C60.13040228 553.88433651 66.25243 536.2128393 72.45005798 518.56686687 C75.13564424 510.9128362 77.7983124 503.25461516 80.33726501 495.55050945 C80.55237732 494.89834957 80.76748962 494.24618969 80.98912048 493.57426739 C81.96015398 490.62323592 82.92159775 487.66947919 83.87095642 484.71139812 C84.19241638 483.72373455 84.51387634 482.73607098 84.84507751 481.7184782 C85.11618347 480.87148357 85.38728943 480.02448895 85.66661072 479.15182781 C86.48179626 477.12863445 86.48179626 477.12863445 88.48179626 475.12863445 C90.47722524 474.87448412 90.47722524 474.87448412 92.98305416 474.86857224 C94.41270265 474.85797385 94.41270265 474.85797385 95.87123293 474.84716135 C96.92558977 474.84957644 97.97994661 474.85199152 99.06625366 474.85447979 C100.18065561 474.84924311 101.29505756 474.84400643 102.44322926 474.83861107 C106.20278395 474.82352782 109.96220355 474.82290409 113.7217865 474.82223797 C116.4068408 474.81462213 119.09188349 474.8062452 121.77693176 474.79701519 C129.08876441 474.77413748 136.40056809 474.7662418 143.71243167 474.76118875 C148.27509988 474.75793532 152.83775962 474.75141505 157.40042305 474.74418736 C170.02526675 474.72461879 182.65010258 474.70821576 195.27496243 474.70531082 C196.08329537 474.70512325 196.89162831 474.70493568 197.72445619 474.70474243 C199.36324378 474.70437617 201.00203136 474.70401247 202.64081895 474.70365132 C203.45434976 474.70346851 204.26788058 474.70328569 205.10606384 474.70309734 C205.92058374 474.70291679 206.73510364 474.70273625 207.57430596 474.70255022 C220.78010553 474.69900663 233.98574222 474.67197387 247.19148528 474.63459945 C260.73929052 474.59656271 274.28701484 474.57715369 287.83487469 474.57685131 C295.44574775 474.57626573 303.05642649 474.56770953 310.66724968 474.53885365 C317.14646749 474.51440164 323.62542011 474.50701475 330.10467153 474.52210117 C333.41254151 474.52929552 336.7197753 474.52561147 340.02760887 474.50569057 C343.60898995 474.4854303 347.18899435 474.49566483 350.77035522 474.51390362 C351.82248135 474.50070365 352.87460747 474.48750368 353.9586162 474.47390372 C356.56523097 474.50441985 358.93801959 474.5605665 361.48179626 475.12863445 C363.5970583 477.53604126 363.5970583 477.53604126 364.48179626 480.12863445 C364.76798828 480.82038769 365.0541803 481.51214092 365.3490448 482.22485638 C365.69754486 483.2660815 365.69754486 483.2660815 366.05308533 484.32834148 C366.32536453 485.13183529 366.59764374 485.93532909 366.87817383 486.7631712 C367.30845131 488.0616927 367.30845131 488.0616927 367.74742126 489.38644695 C368.21244301 490.76491047 368.21244301 490.76491047 368.68685913 492.17122173 C369.35637141 494.1574211 370.02330723 496.14449042 370.6879425 498.13232708 C372.47295544 503.46983148 374.27734826 508.8007878 376.07945251 514.1325407 C376.44742447 515.2228207 376.81539642 516.3131007 377.19451904 517.43641949 C380.48112056 527.16146774 383.84702986 536.85767275 387.24214172 546.54529095 C388.77819991 550.92877763 390.30961097 555.3138871 391.84117126 559.69894695 C392.28924385 560.98183353 392.28924385 560.98183353 392.74636841 562.29063702 C395.85741253 571.20052519 398.96608042 580.11116293 402.04371643 589.03265667 C402.62204818 590.70605135 403.20255364 592.37869656 403.78535461 594.05053997 C404.5845105 596.34414327 405.37592559 598.64027429 406.16539001 600.9372282 C406.40207397 601.61111584 406.63875793 602.28500347 406.88261414 602.97931194 C408.00365418 606.26884025 408.48179626 608.59551312 408.48179626 612.12863445 C407.49651947 612.13672131 406.51124268 612.14480816 405.49610901 612.15314007 C396.22544462 612.2305161 386.95492854 612.31823343 377.68445778 612.41616154 C372.9180405 612.46617661 368.15164596 612.512506 363.38511658 612.55050945 C358.78793821 612.58729667 354.19094765 612.63363834 349.59392929 612.68669796 C347.83723103 612.70527693 346.08049245 612.72037185 344.32373428 612.73197842 C341.86922589 612.74878126 339.41515095 612.77780092 336.96080017 612.8097868 C336.22928238 612.81194698 335.49776459 612.81410717 334.74407959 612.81633282 C330.66209162 612.76742081 330.66209162 612.76742081 327.48179626 615.12863445 C327.28356255 617.61720358 327.20898938 619.99447582 327.2230072 622.4841032 C327.21775024 623.62089016 327.21775024 623.62089016 327.21238708 624.78064251 C327.20356497 627.29256559 327.20942052 629.80420837 327.21617126 632.31613445 C327.21482475 634.05726456 327.21288433 635.79839431 327.21037292 637.53952312 C327.20742101 641.19133357 327.21172143 644.84304629 327.22105408 648.49484539 C327.23244867 653.18270427 327.22588956 657.87033415 327.21390915 662.55818462 C327.20669234 666.15432755 327.20897765 669.75041593 327.21416473 673.34656048 C327.21550173 675.07538155 327.21385178 676.80420753 327.20920563 678.53302288 C327.2041433 680.94653786 327.21184627 683.35967869 327.2230072 685.7731657 C327.21693451 686.85170315 327.21693451 686.85170315 327.21073914 687.95202923 C327.13215027 691.98859811 327.13215027 691.98859811 329.48179626 695.12863445 C332.51071373 695.32673756 335.44833701 695.39776393 338.47850037 695.38260174 C339.42209868 695.38572172 340.36569699 695.3888417 341.33788919 695.39205623 C344.51938414 695.40007309 347.70069031 695.39369826 350.88218689 695.38742352 C353.15507113 695.39013174 355.42795449 695.39369172 357.70083618 695.39804363 C363.88869297 695.40718995 370.07648335 695.40361416 376.26434135 695.39728546 C382.72700561 695.39223704 389.18966402 695.39691368 395.65232849 695.40005779 C407.20325642 695.40393446 418.75415025 695.39770237 430.30507284 695.38753912 C440.78570792 695.37860318 451.2662987 695.3801551 461.74693298 695.38937664 C473.90741416 695.40007116 486.06786055 695.40406825 498.2283473 695.39815211 C504.66931186 695.39502712 511.11024588 695.39463753 517.5512085 695.40122509 C523.60531478 695.40698399 529.65933705 695.40302843 535.71343422 695.39143658 C537.94114861 695.38878217 540.16887001 695.38956828 542.39658165 695.39396191 C545.42618204 695.39938812 548.4555094 695.39261897 551.48509216 695.38260174 C552.82252086 695.3892939 552.82252086 695.3892939 554.18696833 695.39612126 C558.81442678 695.58447365 558.81442678 695.58447365 562.48179626 693.12863445 C562.68002998 690.64006533 562.75460315 688.26279309 562.74058533 685.7731657 C562.74584229 684.63637875 562.74584229 684.63637875 562.75120544 683.4766264 C562.76002756 680.96470331 562.754172 678.45306053 562.74742126 675.94113445 C562.74876778 674.20000434 562.7507082 672.4588746 562.7532196 670.71774578 C562.75617152 667.06593533 562.7518711 663.41422262 562.74253845 659.76242352 C562.73114386 655.07456464 562.73770297 650.38693475 562.74968338 645.69908428 C562.75690019 642.10294135 562.75461488 638.50685297 562.7494278 634.91070843 C562.7480908 633.18188735 562.74974075 631.45306137 562.7543869 629.72424603 C562.75944923 627.31073104 562.75174626 624.89759022 562.74058533 622.4841032 C562.74665802 621.40556576 562.74665802 621.40556576 562.75285339 620.30523968 C562.83144226 616.2686708 562.83144226 616.2686708 560.48179626 613.12863445 C557.89351199 612.79665697 557.89351199 612.79665697 554.83872986 612.8097868 C553.65765656 612.78991711 552.47658325 612.77004742 551.25971985 612.74957561 C549.97948944 612.73802441 548.69925903 612.7264732 547.38023376 612.71457195 C546.07349701 612.6952058 544.76676025 612.67583965 543.42042542 612.65588665 C539.94512518 612.60449275 536.46978614 612.56490623 532.99430847 612.52774334 C529.44837286 612.48774892 525.90259965 612.43663586 522.35679626 612.38644695 C515.3985815 612.28960198 508.44026262 612.2052248 501.48179626 612.12863445 C501.0591449 610.90096355 500.63649353 609.67329266 500.20103455 608.40841961 C496.43394725 597.52253429 492.47599126 586.73285524 488.31803894 575.99090862 C481.34037926 557.93578775 474.67281735 539.77449996 468.10679626 521.56613445 C467.66224091 520.33345837 467.21768555 519.10078228 466.75965881 517.83075237 C465.86067055 515.33775851 464.96168881 512.8447623 464.06271362 510.35176373 C463.39810875 508.50881474 463.39810875 508.50881474 462.72007751 506.62863445 C462.27857864 505.40415096 461.83707977 504.17966747 461.38220215 502.91807842 C457.06385108 490.95110941 452.68817513 479.00554605 448.29429626 467.06613445 C447.9302066 466.07641644 447.56611694 465.08669842 447.19099426 464.06698895 C444.99589675 458.10045486 442.7990022 452.13458383 440.60154724 446.16891766 C430.09918361 417.65350627 419.63877285 389.12493518 409.34721375 360.53274822 C406.39593462 352.33414935 403.44142542 344.13672304 400.48179626 335.94113445 C400.13010376 334.96719738 399.77841125 333.99326031 399.4160614 332.98980999 C393.36335448 316.23882099 387.21544302 299.52379667 381.04429626 282.81613445 C372.6062615 259.96733599 364.30063022 237.07398349 356.07710266 214.14721966 C351.69113182 201.92001466 347.292493 189.69737777 342.88869762 177.47658253 C341.43274534 173.43611477 339.97812406 169.39517165 338.52466202 165.35380745 C337.4008463 162.23015824 336.2751558 159.10718527 335.14976501 155.9841032 C334.75153534 154.87574612 334.35330566 153.76738903 333.94300842 152.62544537 C331.57843097 146.07054247 329.10790655 139.57238886 326.50909424 133.10637188 C325.4755844 130.11062868 324.91012933 127.26331261 324.48179626 124.12863445 C325.61740997 124.13307568 326.75302368 124.1375169 327.92304993 124.1420927 C338.60633601 124.18257279 349.28960661 124.21258705 359.97295189 124.2322588 C365.46584129 124.24271208 370.95866896 124.25689938 376.45152283 124.27951336 C381.74884781 124.30118676 387.04611327 124.31319143 392.34347916 124.31838894 C394.3681647 124.32209462 396.39284685 124.32933049 398.41750717 124.34009457 C401.24548728 124.35453639 404.07321902 124.35661547 406.90122986 124.35568523 C408.16681984 124.36647106 408.16681984 124.36647106 409.45797729 124.37747478 C413.94296454 124.55602771 413.94296454 124.55602771 417.48179626 122.12863445 C417.67999244 119.67541494 417.75461719 117.33509839 417.74058533 114.88083172 C417.74408997 114.13433361 417.7475946 113.3878355 417.75120544 112.61871624 C417.76002824 110.14406391 417.75417118 107.66969609 417.74742126 105.1950407 C417.7487679 103.47872646 417.75070842 101.76241259 417.7532196 100.04609966 C417.75617172 96.44556332 417.75187096 92.84512609 417.74253845 89.24460125 C417.73115241 84.62634183 417.73769741 80.00831508 417.74968338 75.39006424 C417.75690694 71.84449285 417.75461162 68.29897671 417.7494278 64.75340366 C417.74809223 63.05052888 417.74973578 61.34764911 417.7543869 59.64478016 C417.75945934 57.2649954 417.75173158 54.88558832 417.74058533 52.50583172 C417.74665802 51.44671329 417.74665802 51.44671329 417.75285339 50.36619854 C417.72120403 46.72335661 417.5628031 45.25014471 415.48179626 42.12863445 C412.66591708 41.67430905 412.66591708 41.67430905 409.28827572 41.75669765 C408.64299725 41.75293653 407.99771879 41.7491754 407.33288643 41.74530029 C405.14963047 41.73628794 402.96701563 41.74884624 400.78378296 41.76114178 C399.21121844 41.75911927 397.63865514 41.75578209 396.06609589 41.7512362 C391.72846858 41.74255061 387.39105383 41.7526882 383.05344498 41.76577854 C378.38197431 41.77663895 373.71052412 41.77026963 369.03904724 41.76599407 C359.88146683 41.76034896 350.72396986 41.77069754 341.56640368 41.78628203 C330.91330318 41.80378099 320.26021909 41.80524043 309.60710645 41.80589762 C290.60641531 41.80758726 271.60576229 41.82342179 252.60508728 41.84738445 C234.14609969 41.87064724 215.68713629 41.88480942 197.22813416 41.88840008 C196.09117969 41.88862285 194.95422523 41.88884561 193.78281759 41.88907513 C191.49257618 41.88951771 189.20233476 41.88995974 186.91209335 41.8904012 C185.7824717 41.89062077 184.65285006 41.89084033 183.48899746 41.89106655 C181.79898357 41.89139053 181.79898357 41.89139053 180.074828 41.89172105 C162.5135707 41.89541795 144.95231733 41.90677768 127.39106433 41.91919695 C121.01467538 41.92363902 114.6382868 41.92707447 108.2618969 41.92981908 C98.14978365 41.93424344 88.03768489 41.94198801 77.92558079 41.95659348 C73.30175698 41.9632197 68.67794602 41.96826948 64.0541172 41.96905422 C59.82838139 41.96983698 55.60267812 41.97520249 51.37695242 41.98437372 C49.84134021 41.98689693 48.30572414 41.98770895 46.77011018 41.98671493 C44.69652645 41.98563115 42.62304695 41.99059576 40.54947567 41.99720669 C39.39355197 41.99845319 38.23762827 41.99969968 37.04667658 42.00098395 C34.54903354 41.83770236 34.54903354 41.83770236 33.48179626 43.12863445 Z " fill="#FFFFFF" transform="translate(155.51820373535156,-0.12863445281982422)"/>
<path d="M0 0 C1.95292969 0.00483398 1.95292969 0.00483398 3.9453125 0.00976562 C5.32552149 0.01812159 6.70572982 0.02658654 8.0859375 0.03515625 C9.47395676 0.04017124 10.86197772 0.04473415 12.25 0.04882812 C15.65368882 0.06064649 19.05729189 0.07712191 22.4609375 0.09765625 C25.99953429 8.18976708 28.98541177 16.38381466 31.70632935 24.77972412 C37.5498483 42.76711591 43.77701235 60.6223396 50.0234375 78.47265625 C50.26015923 79.14931587 50.49688095 79.82597549 50.74077606 80.52313995 C58.24816304 101.98141581 65.78738272 123.42855585 73.34375 144.86962891 C77.24870896 155.95214777 81.14327956 167.03815042 85.01442528 178.13253212 C85.68061392 180.04171748 86.34702354 181.95082556 87.01350403 183.85990906 C87.23405047 184.49166581 87.45459692 185.12342257 87.68182659 185.77432346 C88.12811472 187.05270904 88.57440951 188.3310923 89.02071095 189.60947323 C90.12765305 192.78045289 91.23396918 195.95164777 92.33944702 199.12313843 C97.08522371 212.73387047 101.88073847 226.32295584 106.82421875 239.86328125 C107.25080276 241.03449524 107.67738678 242.20570923 108.11689758 243.41241455 C110.13616062 248.95379406 112.16640619 254.49066041 114.21704102 260.02050781 C114.9315534 261.97316058 115.64568764 263.92595178 116.359375 265.87890625 C116.69153519 266.76128967 117.02369537 267.6436731 117.36592102 268.55279541 C117.65943954 269.36230652 117.95295807 270.17181763 118.25537109 271.00585938 C118.51401947 271.70424927 118.77266785 272.40263916 119.03915405 273.12219238 C119.53738841 275.45572154 119.24951108 276.86394924 118.4609375 279.09765625 C116.61646157 280.94213218 114.01178584 280.22309215 111.55692202 280.23139966 C110.70129953 280.22916893 109.84567703 280.22693821 108.96412659 280.22463989 C107.61126404 280.22697988 107.61126404 280.22697988 106.23107094 280.22936714 C103.1847114 280.23338125 100.13840099 280.2301859 97.09204102 280.22705078 C94.91782604 280.22840465 92.74361128 280.2301845 90.56939697 280.23236084 C84.6459514 280.23693716 78.72252316 280.23514473 72.79907727 280.23198175 C66.61401143 280.22945885 60.42894712 280.23179552 54.24388123 280.23336792 C43.18740863 280.23530684 32.13094373 280.23218897 21.07447236 280.22710858 C9.71279821 280.22204962 -1.64885988 280.22465143 -13.01053375 280.22985375 C-23.31878157 280.23438561 -33.62702426 280.23503502 -43.93527275 280.23241508 C-50.1001409 280.23085253 -56.26500106 280.23065792 -62.4298687 280.23395157 C-68.22539441 280.23683129 -74.02089818 280.2348527 -79.81642151 280.22905731 C-81.94899522 280.2277302 -84.08157076 280.22812301 -86.21414375 280.23031998 C-89.11454378 280.23303341 -92.01487252 280.22964791 -94.91526794 280.22463989 C-95.76865972 280.22687061 -96.62205149 280.22910134 -97.50130361 280.23139966 C-103.31076266 280.21180617 -103.31076266 280.21180617 -105.5390625 279.09765625 C-104.94922511 273.66466269 -103.612562 268.95842525 -101.72265625 263.84375 C-101.43496872 263.04746689 -101.14728119 262.25118378 -100.85087585 261.43077087 C-100.22659413 259.70442883 -99.5993769 257.97914609 -98.96954346 256.25482178 C-97.24514729 251.5318905 -95.5438671 246.80062399 -93.83984375 242.0703125 C-93.48392151 241.08393799 -93.12799927 240.09756348 -92.7612915 239.08129883 C-88.9764935 228.57472516 -85.316347 218.0258606 -81.6640625 207.47265625 C-76.30773631 192.01339253 -70.89093786 176.57711272 -65.4140625 161.16015625 C-58.68821641 142.22236803 -52.03459526 123.25995236 -45.4140625 104.28515625 C-45.17952488 103.61297562 -44.94498726 102.94079498 -44.70334244 102.24824524 C-41.73329649 93.73566454 -38.76531118 85.22236614 -35.7979126 76.7088623 C-33.53720205 70.22366472 -31.27483203 63.73904613 -29.01251221 57.25440979 C-27.18776796 52.02400205 -25.36329727 46.79349947 -23.53985596 41.56263733 C-23.00714052 40.03538383 -22.47391046 38.50830973 -21.94012451 36.98143005 C-20.52276864 32.92640667 -19.11492838 28.86835276 -17.71826172 24.80615234 C-17.41121811 23.91780197 -17.1041745 23.0294516 -16.78782654 22.11418152 C-16.20381632 20.42444711 -15.62272561 18.73369927 -15.04530334 17.04170227 C-9.12458635 -0.03967211 -9.12458635 -0.03967211 0 0 Z M6.4609375 88.09765625 C6.27318253 88.64252686 6.08542755 89.18739746 5.89198303 89.7487793 C-2.68873638 114.64462925 -11.29565428 139.53041619 -20.1015625 164.34765625 C-20.61405548 165.79206589 -20.61405548 165.79206589 -21.13690186 167.26565552 C-23.23223107 173.16918791 -25.33016803 179.0717915 -27.42871094 184.97418213 C-30.60475611 193.90855501 -33.77716996 202.84421429 -36.94674683 211.78088379 C-38.08304564 214.98297572 -39.22127599 218.18437656 -40.35961914 221.38574219 C-41.04582713 223.31962901 -41.73194852 225.25354656 -42.41796875 227.1875 C-42.89472046 228.52587166 -42.89472046 228.52587166 -43.38110352 229.89128113 C-44.87039315 233.41686708 -44.87039315 233.41686708 -45.5390625 237.09765625 C-10.8890625 237.09765625 23.7609375 237.09765625 59.4609375 237.09765625 C51.25630845 212.43987488 51.25630845 212.43987488 42.6963501 187.91479492 C40.90482647 182.90674014 39.12425387 177.89479373 37.34375 172.8828125 C36.77181412 171.27329208 36.77181412 171.27329208 36.18832397 169.6312561 C32.95697954 160.52430348 29.76231847 151.40476668 26.578125 142.28125 C26.20451843 141.21078776 26.20451843 141.21078776 25.82336426 140.11870003 C23.34522805 133.01698484 20.87005237 125.91423986 18.39673424 118.81084538 C17.47290201 116.15806435 16.54840134 113.50551653 15.62381363 110.85299873 C14.98876332 109.03010395 14.35482195 107.20682297 13.72091675 105.38352966 C11.70306269 99.59349891 9.64534626 93.82702336 7.4609375 88.09765625 C7.1309375 88.09765625 6.8009375 88.09765625 6.4609375 88.09765625 Z " fill="#FFFFFF" transform="translate(373.5390625,123.90234375)"/>
<path d="M0 0 C8.90233173 -0.09085795 17.80434872 -0.1640342 26.70704174 -0.20724869 C30.84222515 -0.22800363 34.97707121 -0.25609573 39.11206055 -0.30175781 C43.11269189 -0.34565289 47.11300154 -0.36922768 51.11385536 -0.37950897 C52.62988655 -0.38682295 54.14590284 -0.4011021 55.66179466 -0.42292023 C68.62322783 -0.60182318 81.19825026 0.64581874 91 10 C98.46248742 17.39433685 101.08793218 25.15304791 101.3125 35.625 C101.21050064 45.37613851 98.80300436 53.08486584 92.00390625 60.20703125 C83.29411765 68 83.29411765 68 78 68 C78.39380859 68.71655762 78.78761719 69.43311523 79.19335938 70.17138672 C80.96657396 73.4035687 82.73335978 76.63922031 84.5 79.875 C85.43005859 81.56689453 85.43005859 81.56689453 86.37890625 83.29296875 C86.96542969 84.36933594 87.55195313 85.44570313 88.15625 86.5546875 C88.97319336 88.04718018 88.97319336 88.04718018 89.80664062 89.56982422 C91 92 91 92 91 94 C95.62 94 100.24 94 105 94 C105 101.26 105 108.52 105 116 C95.76 116 86.52 116 77 116 C75.246875 112.803125 73.49375 109.60625 71.6875 106.3125 C71.0908252 105.24854004 70.49415039 104.18458008 69.87939453 103.08837891 C67.10901216 98.11418469 64.59641919 93.19245806 62.4921875 87.8984375 C59.29417467 79.78409784 59.29417467 79.78409784 54 73 C47.02132197 70.25164031 40.42001679 71.3856037 33 72 C33 79.26 33 86.52 33 94 C37.29 94 41.58 94 46 94 C46 101.26 46 108.52 46 116 C30.82 116 15.64 116 0 116 C0 108.74 0 101.48 0 94 C3.63 94 7.26 94 11 94 C11 69.91 11 45.82 11 21 C7.37 21 3.74 21 0 21 C0 14.07 0 7.14 0 0 Z M33 21 C33 31.23 33 41.46 33 52 C37.599375 52.061875 42.19875 52.12375 46.9375 52.1875 C49.08560181 52.22846802 49.08560181 52.22846802 51.27709961 52.27026367 C62.70477782 52.53197109 62.70477782 52.53197109 72.60913086 47.54736328 C76.69044456 42.82344148 77.35601197 39.60042202 77.27734375 33.54296875 C76.86575288 29.76908627 75.55798217 27.75992813 73 25 C67.24986428 21.52595967 62.68948598 20.87419709 56.046875 20.90234375 C54.23461426 20.90609009 54.23461426 20.90609009 52.38574219 20.90991211 C50.0910498 20.92356812 50.0910498 20.92356812 47.75 20.9375 C42.8825 20.958125 38.015 20.97875 33 21 Z " fill="#FFFFFF" transform="translate(186,778)"/>
<path d="M0 0 C22.77 0 45.54 0 69 0 C69 6.93 69 13.86 69 21 C65.04 21.33 61.08 21.66 57 22 C59.10805586 27.93679145 61.21679966 33.87333799 63.32617188 39.80966187 C64.06475543 41.88840868 64.80320031 43.96720476 65.54150391 46.04605103 C70.77069923 60.77712869 70.77069923 60.77712869 76.06640625 75.484375 C76.48801025 76.64718994 76.90961426 77.81000488 77.34399414 79.00805664 C78.09681852 81.07860191 78.85237722 83.1481557 79.61108398 85.21655273 C80.09750366 86.55375366 80.09750366 86.55375366 80.59375 87.91796875 C80.86896484 88.66844482 81.14417969 89.4189209 81.42773438 90.19213867 C82 92 82 92 82 94 C85.63 94 89.26 94 93 94 C93 101.26 93 108.52 93 116 C78.15 116 63.3 116 48 116 C48 108.74 48 101.48 48 94 C52.95 93.505 52.95 93.505 58 93 C57.71125 92.15695312 57.4225 91.31390625 57.125 90.4453125 C56.75375 89.34960938 56.3825 88.25390625 56 87.125 C55.62875 86.03445313 55.2575 84.94390625 54.875 83.8203125 C54 81 54 81 54 79 C41.13 79 28.26 79 15 79 C14.34 81.97 13.68 84.94 13 88 C12.36515933 90.01032877 11.71228144 92.01578741 11 94 C14.63 94 18.26 94 22 94 C22 101.26 22 108.52 22 116 C6.82 116 -8.36 116 -24 116 C-24 108.74 -24 101.48 -24 94 C-18.555 93.505 -18.555 93.505 -13 93 C-12.71851608 92.20121933 -12.43703217 91.40243866 -12.14701843 90.57945251 C-9.48668064 83.03141837 -6.82407472 75.48418899 -4.15895367 67.93784237 C-2.7890534 64.05868894 -1.42001492 60.17923596 -0.05297852 56.29907227 C1.26768239 52.55064268 2.59064953 48.80303432 3.91518211 45.05597115 C4.418716 43.63022093 4.92143502 42.20418264 5.4233036 40.77784538 C6.1293758 38.77160678 6.83840661 36.76643613 7.5480957 34.76147461 C7.9500264 33.62230087 8.35195709 32.48312714 8.7660675 31.30943298 C10.069045 27.81481984 11.5049978 24.4161582 13 21 C8.71 21 4.42 21 0 21 C0 14.07 0 7.14 0 0 Z M34 23 C32.28711039 27.94657616 30.57821574 32.89450704 28.87304688 37.84375 C28.29211922 39.52805031 27.71009192 41.21197176 27.12695312 42.89550781 C26.29008842 45.31216812 25.45715747 47.7301529 24.625 50.1484375 C24.36251465 50.9036972 24.1000293 51.65895691 23.82958984 52.43710327 C22.4774272 56.13287612 22.4774272 56.13287612 22 60 C30.25 60 38.5 60 47 60 C44.57207494 51.02633205 44.57207494 51.02633205 41.73828125 42.23828125 C41.34189453 41.10068359 40.94550781 39.96308594 40.53710938 38.79101562 C40.13298828 37.64310547 39.72886719 36.49519531 39.3125 35.3125 C38.89677734 34.12205078 38.48105469 32.93160156 38.05273438 31.70507812 C37.03847718 28.80220407 36.02084668 25.90056187 35 23 C34.67 23 34.34 23 34 23 Z " fill="#FFFFFF" transform="translate(623,778)"/>
<path d="M0 0 C30.69 0 61.38 0 93 0 C93 12.21 93 24.42 93 37 C85.74 37 78.48 37 71 37 C71 31.72 71 26.44 71 21 C59.12 21 47.24 21 35 21 C35 29.25 35 37.5 35 46 C45.23 46 55.46 46 66 46 C66 53.26 66 60.52 66 68 C55.77 68 45.54 68 35 68 C35 76.58 35 85.16 35 94 C46.88 94 58.76 94 71 94 C71 88.39 71 82.78 71 77 C78.26 77 85.52 77 93 77 C93 89.87 93 102.74 93 116 C62.31 116 31.62 116 0 116 C0 108.74 0 101.48 0 94 C3.96 94 7.92 94 12 94 C12 69.91 12 45.82 12 21 C8.04 21 4.08 21 0 21 C0 14.07 0 7.14 0 0 Z " fill="#FFFFFF" transform="translate(333,778)"/>
<path d="M0 0 C28.13889699 -3.23548293 28.13889699 -3.23548293 35.71142578 1.8046875 C40.23224068 6.78796572 42.88149495 12.78537138 45.56054688 18.89990234 C47.87665925 23.88802902 50.90835113 28.36026749 53.9375 32.9375 C55.08745907 34.73908618 56.23456835 36.54249438 57.37890625 38.34765625 C63.51152012 47.94675177 69.76326408 57.46838473 76 67 C76.33 51.49 76.66 35.98 77 20 C73.37 20 69.74 20 66 20 C66 13.4 66 6.8 66 0 C79.53 0 93.06 0 107 0 C107 6.6 107 13.2 107 20 C103.7 20 100.4 20 97 20 C97 48.05 97 76.1 97 105 C90.07 105 83.14 105 76 105 C69.78788076 97.95029165 69.78788076 97.95029165 68.22265625 94.50390625 C65.95177431 89.79708053 63.21647979 85.5040791 60.375 81.125 C59.36742688 79.52753077 58.36230901 77.92851087 57.359375 76.328125 C53.4769183 70.15854836 49.55291791 64.0157022 45.625 57.875 C44.95903809 56.83230957 44.29307617 55.78961914 43.60693359 54.71533203 C42.96578613 53.71356934 42.32463867 52.71180664 41.6640625 51.6796875 C41.10154785 50.80038574 40.5390332 49.92108398 39.95947266 49.01513672 C37.34162343 44.98692366 34.66485012 40.99727518 32 37 C31.67 53.17 31.34 69.34 31 86 C34.3 86 37.6 86 41 86 C41 92.27 41 98.54 41 105 C27.47 105 13.94 105 0 105 C0 98.73 0 92.46 0 86 C3.3 86 6.6 86 10 86 C10 64.22 10 42.44 10 20 C6.7 20 3.4 20 0 20 C0 13.4 0 6.8 0 0 Z " fill="#FFFFFF" transform="translate(116,952)"/>
<path d="M0 0 C13.86 0 27.72 0 42 0 C42 6.6 42 13.2 42 20 C38.7 20 35.4 20 32 20 C32 27.59 32 35.18 32 43 C44.87 43 57.74 43 71 43 C71 35.41 71 27.82 71 20 C67.37 20 63.74 20 60 20 C60 13.4 60 6.8 60 0 C73.86 0 87.72 0 102 0 C102 6.6 102 13.2 102 20 C98.7 20 95.4 20 92 20 C92 41.78 92 63.56 92 86 C95.3 86 98.6 86 102 86 C102 92.27 102 98.54 102 105 C88.14 105 74.28 105 60 105 C60 98.73 60 92.46 60 86 C63.63 86 67.26 86 71 86 C71 78.08 71 70.16 71 62 C58.13 62 45.26 62 32 62 C32 69.92 32 77.84 32 86 C35.3 86 38.6 86 42 86 C42 92.27 42 98.54 42 105 C28.14 105 14.28 105 0 105 C0 98.73 0 92.46 0 86 C3.63 86 7.26 86 11 86 C11 64.22 11 42.44 11 20 C7.37 20 3.74 20 0 20 C0 13.4 0 6.8 0 0 Z " fill="#FFFFFF" transform="translate(336,952)"/>
<path d="M0 0 C8.78921833 -0.09081214 17.57811882 -0.16400825 26.36770248 -0.20724869 C30.45022942 -0.22801478 34.53241534 -0.25612795 38.61474609 -0.30175781 C42.56350242 -0.34561226 46.51193331 -0.36921937 50.46091461 -0.37950897 C51.95823531 -0.38683008 53.45554069 -0.40112391 54.95272064 -0.42292023 C69.00192198 -0.61908853 81.1869767 1.79817071 91.74609375 11.625 C100.05421069 20.57539031 101.47946844 30.9167982 101.27734375 42.65625 C100.83485828 52.81800587 96.25751848 60.98892769 89 67.90625 C80.14240875 75.37193406 69.93122139 78.14315228 58.51171875 78.09765625 C57.80852005 78.0962413 57.10532135 78.09482635 56.3808136 78.09336853 C54.14966456 78.08780109 51.91861836 78.07525475 49.6875 78.0625 C48.16862125 78.05748079 46.64974091 78.05291862 45.13085938 78.04882812 C41.42050207 78.03869607 37.71036524 78.01911465 34 78 C34 83.28 34 88.56 34 94 C38.29 94 42.58 94 47 94 C47 101.26 47 108.52 47 116 C31.49 116 15.98 116 0 116 C0 108.74 0 101.48 0 94 C3.63 94 7.26 94 11 94 C11 69.91 11 45.82 11 21 C7.37 21 3.74 21 0 21 C0 14.07 0 7.14 0 0 Z M34 21 C34 32.88 34 44.76 34 57 C40.373125 57.12375 40.373125 57.12375 46.875 57.25 C48.1935498 57.28641602 49.51209961 57.32283203 50.87060547 57.36035156 C58.73941975 57.43372598 66.36735941 56.88140157 72.64404297 51.62255859 C76.04670633 47.86455769 77.95798376 43.91487636 78.03125 38.83203125 C77.61699768 32.64931544 75.73302369 28.55082211 71.125 24.25 C66.22883798 21.36990469 61.68327969 20.75501522 56.0703125 20.8046875 C54.32645264 20.81218018 54.32645264 20.81218018 52.54736328 20.81982422 C50.35829346 20.84713623 50.35829346 20.84713623 48.125 20.875 C41.133125 20.936875 41.133125 20.936875 34 21 Z " fill="#FFFFFF" transform="translate(42,778)"/>
<path d="M0 0 C8.78921833 -0.09081214 17.57811882 -0.16400825 26.36770248 -0.20724869 C30.45022942 -0.22801478 34.53241534 -0.25612795 38.61474609 -0.30175781 C42.56350242 -0.34561226 46.51193331 -0.36921937 50.46091461 -0.37950897 C51.95823531 -0.38683008 53.45554069 -0.40112391 54.95272064 -0.42292023 C69.45750264 -0.62544978 81.04646729 2.03902041 92 12 C99.59764798 20.46595061 101.59669125 30.7478836 101.28125 41.8671875 C100.43792084 51.26093729 96.74064862 60.40859403 89.890625 67.04296875 C77.35708189 77.17785102 65.02052248 78.30733805 49.4375 78.125 C47.93685494 78.11494923 46.43620335 78.10582709 44.93554688 78.09765625 C41.29006879 78.07752661 37.64551196 78.03835138 34 78 C34 83.28 34 88.56 34 94 C38.29 94 42.58 94 47 94 C47 101.26 47 108.52 47 116 C31.49 116 15.98 116 0 116 C0 108.74 0 101.48 0 94 C3.63 94 7.26 94 11 94 C11 69.91 11 45.82 11 21 C7.37 21 3.74 21 0 21 C0 14.07 0 7.14 0 0 Z M34 21 C34 32.88 34 44.76 34 57 C38.29 57.061875 42.58 57.12375 47 57.1875 C49.00513672 57.22846802 49.00513672 57.22846802 51.05078125 57.27026367 C59.14653457 57.32661884 65.40657513 57.03444767 71.8125 51.625 C72.534375 50.75875 73.25625 49.8925 74 49 C74.598125 48.29875 75.19625 47.5975 75.8125 46.875 C77.91659064 41.78088581 77.97031697 36.14775444 76.34375 30.87109375 C73.92496599 26.04395152 70.7034941 24.18376512 66 22 C62.48479911 20.84453168 59.16843223 20.88559804 55.484375 20.90234375 C53.79393066 20.90609009 53.79393066 20.90609009 52.06933594 20.90991211 C50.64395508 20.91901611 49.21857422 20.92812012 47.75 20.9375 C43.2125 20.958125 38.675 20.97875 34 21 Z " fill="#FFFFFF" transform="translate(471,778)"/>
<path d="M0 0 C21.12 0 42.24 0 64 0 C64 6.6 64 13.2 64 20 C60.04 20 56.08 20 52 20 C52.40742432 21.09820068 52.81484863 22.19640137 53.23461914 23.32788086 C57.69317613 35.37268851 62.05664945 47.44989997 66.36401367 59.54956055 C67.45777517 62.61940603 68.55605308 65.68761501 69.65429688 68.75585938 C70.3518385 70.71344334 71.04911469 72.67112192 71.74609375 74.62890625 C72.07411484 75.54329971 72.40213593 76.45769318 72.74009705 77.39979553 C73.03783524 78.23925217 73.33557343 79.0787088 73.64233398 79.94360352 C73.90545883 80.68127457 74.16858368 81.41894562 74.43968201 82.17897034 C75 84 75 84 75 86 C78.3 86 81.6 86 85 86 C85 92.27 85 98.54 85 105 C71.47 105 57.94 105 44 105 C44 98.73 44 92.46 44 86 C47.3 86 50.6 86 54 86 C53.71125 85.24074219 53.4225 84.48148438 53.125 83.69921875 C52.75375 82.70535156 52.3825 81.71148438 52 80.6875 C51.62875 79.70136719 51.2575 78.71523437 50.875 77.69921875 C50 75 50 75 50 72 C32.675 72.495 32.675 72.495 15 73 C13.68 76.96 12.36 80.92 11 85 C14.3 85.33 17.6 85.66 21 86 C21 92.27 21 98.54 21 105 C7.14 105 -6.72 105 -21 105 C-21 98.73 -21 92.46 -21 86 C-16.05 85.505 -16.05 85.505 -11 85 C-10.5875 83.8126123 -10.175 82.62522461 -9.75 81.40185547 C5.34329002 37.9709902 5.34329002 37.9709902 12 20 C8.04 20 4.08 20 0 20 C0 13.4 0 6.8 0 0 Z M32 22 C29.14633343 28.73536209 26.67827537 35.6027888 24.25 42.5 C23.77324829 43.84529785 23.77324829 43.84529785 23.28686523 45.21777344 C22.99110596 46.0637207 22.69534668 46.90966797 22.390625 47.78125 C22.12282227 48.54501953 21.85501953 49.30878906 21.57910156 50.09570312 C20.90301772 51.98717919 20.90301772 51.98717919 21 54 C28.26 54 35.52 54 43 54 C40.24573403 43.14495177 36.59707613 32.59934496 33 22 C32.67 22 32.34 22 32 22 Z " fill="#FFFFFF" transform="translate(571,952)"/>
<path d="M0 0 C20.79 0 41.58 0 63 0 C63 6.6 63 13.2 63 20 C59.04 20 55.08 20 51 20 C51.33668701 20.88598877 51.67337402 21.77197754 52.02026367 22.68481445 C56.22394689 33.79551146 60.25112705 44.96678631 64.23364258 56.15844727 C65.32482794 59.22211252 66.42117347 62.28390243 67.51757812 65.34570312 C68.21646116 67.30717934 68.91504029 69.26876388 69.61328125 71.23046875 C69.93927811 72.13878952 70.26527496 73.04711029 70.60115051 73.98295593 C70.90204086 74.83186905 71.20293121 75.68078217 71.51293945 76.55541992 C71.77685989 77.29547775 72.04078033 78.03553558 72.31269836 78.79801941 C73.05559142 81.17810409 73.55102298 83.54894595 74 86 C77.3 86 80.6 86 84 86 C84 92.27 84 98.54 84 105 C70.47 105 56.94 105 43 105 C43 98.73 43 92.46 43 86 C46.3 86 49.6 86 53 86 C52.71125 85.24074219 52.4225 84.48148438 52.125 83.69921875 C51.75375 82.70535156 51.3825 81.71148438 51 80.6875 C50.62875 79.70136719 50.2575 78.71523437 49.875 77.69921875 C49 75 49 75 49 72 C31.675 72.495 31.675 72.495 14 73 C12.68 76.96 11.36 80.92 10 85 C13.3 85.33 16.6 85.66 20 86 C20 92.27 20 98.54 20 105 C6.14 105 -7.72 105 -22 105 C-22 98.73 -22 92.46 -22 86 C-17.05 85.505 -17.05 85.505 -12 85 C-11.770849 84.34791061 -11.541698 83.69582123 -11.30560303 83.02397156 C-9.12945205 76.83169145 -6.95272365 70.63961465 -4.77537155 64.44775677 C-3.65641501 61.26565458 -2.53766977 58.08347846 -1.41943359 54.90112305 C-0.12913683 51.22945918 1.1619243 47.55806482 2.453125 43.88671875 C2.84808167 42.76230881 3.24303833 41.63789886 3.64996338 40.47941589 C6.05742707 33.6369744 8.50997551 26.81284589 11 20 C7.37 20 3.74 20 0 20 C0 13.4 0 6.8 0 0 Z M31 22 C28.03276357 29.1022617 25.53598477 36.27783153 23.25 43.625 C22.1775 47.04875 21.105 50.4725 20 54 C27.26 54 34.52 54 42 54 C41.25131895 49.50791369 40.41760902 45.94869046 38.93359375 41.7265625 C38.53076172 40.57285156 38.12792969 39.41914062 37.71289062 38.23046875 C37.08157227 36.44576172 37.08157227 36.44576172 36.4375 34.625 C36.01275391 33.41199219 35.58800781 32.19898438 35.15039062 30.94921875 C34.10459637 27.96459246 33.05433507 24.98161764 32 22 C31.67 22 31.34 22 31 22 Z " fill="#FFFFFF" transform="translate(23,952)"/>
<path d="M0 0 C20.79 0 41.58 0 63 0 C63 6.6 63 13.2 63 20 C59.37 20 55.74 20 52 20 C63.27930192 52.57860992 63.27930192 52.57860992 75 85 C77.97 85.33 80.94 85.66 84 86 C84 92.27 84 98.54 84 105 C70.47 105 56.94 105 43 105 C43 98.73 43 92.46 43 86 C46.3 86 49.6 86 53 86 C52.71125 85.15695312 52.4225 84.31390625 52.125 83.4453125 C51.75375 82.34960938 51.3825 81.25390625 51 80.125 C50.62875 79.03445313 50.2575 77.94390625 49.875 76.8203125 C49 74 49 74 49 72 C37.45 72 25.9 72 14 72 C13.34 74.97 12.68 77.94 12 81 C11.38103371 82.68496378 10.73882078 84.36403971 10 86 C13.3 86 16.6 86 20 86 C20 92.27 20 98.54 20 105 C6.47 105 -7.06 105 -21 105 C-21 98.73 -21 92.46 -21 86 C-17.7 86 -14.4 86 -11 86 C-10.90033936 85.19925049 -10.80067871 84.39850098 -10.69799805 83.57348633 C-9.83128296 79.13623248 -8.37758904 75.06465692 -6.83203125 70.82421875 C-6.51473557 69.940793 -6.19743988 69.05736725 -5.87052917 68.14717102 C-4.85596252 65.32553313 -3.83444154 62.50647417 -2.8125 59.6875 C-2.14470237 57.83545944 -1.47738037 55.9832473 -0.81054688 54.13085938 C0.17441648 51.39507212 1.15976816 48.65943235 2.14718628 45.92453003 C5.14036011 37.6311586 8.07945645 29.3191865 11 21 C7.37 20.67 3.74 20.34 0 20 C0 13.4 0 6.8 0 0 Z M31 22 C29.56991979 26.07306621 28.14592905 30.14819426 26.72753906 34.2253418 C26.24418208 35.61199243 25.75916689 36.99806621 25.27246094 38.38354492 C24.57310047 40.37529498 23.87973282 42.36904455 23.1875 44.36328125 C22.76855469 45.56251221 22.34960938 46.76174316 21.91796875 47.99731445 C20.85382061 50.95484259 20.85382061 50.95484259 21 54 C28.26 54 35.52 54 43 54 C41.61800028 49.76220751 40.23246452 45.52593903 38.83740234 41.29248047 C38.36387818 39.85178564 37.89250997 38.41038034 37.42333984 36.96826172 C36.74881692 34.89620715 36.06659679 32.82682641 35.3828125 30.7578125 C34.97434082 29.5114502 34.56586914 28.26508789 34.14501953 26.98095703 C33.20730306 23.93627659 33.20730306 23.93627659 31 22 Z " fill="#FFFFFF" transform="translate(243,952)"/>
<path d="M0 0 C13.86 0 27.72 0 42 0 C42 6.6 42 13.2 42 20 C38.37 20 34.74 20 31 20 C31.09401552 26.38655868 31.20021408 32.7727596 31.31738281 39.15893555 C31.35551012 41.32847647 31.39039043 43.49807712 31.421875 45.66772461 C31.46788014 48.79823047 31.52581439 51.92833094 31.5859375 55.05859375 C31.59748871 56.01833603 31.60903992 56.97807831 31.62094116 57.96690369 C31.80497148 66.49036171 32.24701772 74.23197281 38.3828125 80.55859375 C43.51831064 85.13588557 48.35957725 85.54640405 55.02734375 85.33984375 C60.31529351 84.7353081 64.14275313 83.26584118 67.5625 79.09375 C70.82813124 74.12108425 72.09800575 69.99625283 72.20532227 64.04785156 C72.22526749 63.06713684 72.24521271 62.08642212 72.26576233 61.07598877 C72.28247482 60.02481873 72.29918732 58.97364868 72.31640625 57.890625 C72.3475779 56.26770538 72.3475779 56.26770538 72.37937927 54.61199951 C72.44472931 51.15806387 72.50369229 47.70405263 72.5625 44.25 C72.60569904 41.90754429 72.64931378 39.5650962 72.69335938 37.22265625 C72.80039587 31.48184818 72.90170448 25.74096412 73 20 C69.37 20 65.74 20 62 20 C62 13.4 62 6.8 62 0 C75.86 0 89.72 0 104 0 C104 6.6 104 13.2 104 20 C100.7 20 97.4 20 94 20 C94.01571045 21.61374512 94.0314209 23.22749023 94.04760742 24.89013672 C94.10214067 30.90977943 94.13643523 36.92940053 94.16479492 42.94921875 C94.17982831 45.54854003 94.20026046 48.14783617 94.22631836 50.74707031 C94.26294101 54.49550605 94.27978152 58.24360472 94.29296875 61.9921875 C94.30845261 63.14363251 94.32393646 64.29507751 94.33988953 65.48141479 C94.34214711 76.44476466 91.98442353 86.31551395 85 95 C74.23464928 104.83068461 62.92922311 107.36109709 48.6640625 107.2109375 C37.16342155 106.54885369 27.03495001 102.67312007 19.125 94.125 C10.87612989 83.89640107 9.68580376 73.34399671 9.8046875 60.52734375 C9.8075174 59.3636879 9.81034729 58.20003204 9.81326294 57.00111389 C9.82438769 53.31313451 9.84947817 49.62540501 9.875 45.9375 C9.88503975 43.42513374 9.89416385 40.91276363 9.90234375 38.40039062 C9.92430181 32.26683195 9.95877839 26.13345823 10 20 C6.7 20 3.4 20 0 20 C0 13.4 0 6.8 0 0 Z " fill="#FFFFFF" transform="translate(447,952)"/>
<path d="M0 0 C1.25417725 0.00241699 1.25417725 0.00241699 2.53369141 0.00488281 C11.28300459 0.17773386 19.3610966 1.9860966 25.75 8.375 C26.74 9.86 26.74 9.86 27.75 11.375 C28.08 8.075 28.41 4.775 28.75 1.375 C35.35 1.375 41.95 1.375 48.75 1.375 C48.75 14.245 48.75 27.115 48.75 40.375 C42.15 40.375 35.55 40.375 28.75 40.375 C27.43 37.405 26.11 34.435 24.75 31.375 C21.19954286 25.45757143 15.57170605 23.49354811 9.1875 21.625 C0.4595835 20.72982908 -6.72332488 21.93755955 -14.5 26.125 C-21.47377016 31.83081195 -25.41537642 38.25958808 -28 46.875 C-29.09665435 57.84154354 -27.17540933 67.54700569 -20.25 76.375 C-14.27205236 83.46970709 -5.5222696 85.74947649 3.4375 86.8125 C12.73192607 85.58493429 21.64972143 82.54895977 27.64453125 74.984375 C29.09809978 72.81934085 30.46468038 70.64321109 31.75 68.375 C36.61872054 68.97059106 40.34328841 71.09977415 44.5625 73.4375 C45.25537109 73.81455078 45.94824219 74.19160156 46.66210938 74.58007812 C48.36128985 75.50583852 50.05609425 76.43962312 51.75 77.375 C47.63234809 88.70873497 38.85162951 98.08928125 27.93945312 103.22753906 C13.33888986 109.34813195 -2.14168382 110.49646311 -17.25 105.375 C-31.16670539 99.53582291 -40.89996038 90.06561468 -47.25 76.375 C-53.07750649 60.0751848 -52.35764266 43.09314508 -45.25 27.375 C-37.70739545 14.2173454 -27.18333913 6.08944775 -12.99609375 1.26953125 C-8.58290146 0.21570327 -4.52064093 -0.00906122 0 0 Z " fill="#FFFFFF" transform="translate(708.25,950.625)"/>
<path d="M0 0 C2.70556641 -0.34057617 2.70556641 -0.34057617 6.1015625 -0.29296875 C7.91914063 -0.2784668 7.91914063 -0.2784668 9.7734375 -0.26367188 C11.04445313 -0.23853516 12.31546875 -0.21339844 13.625 -0.1875 C14.90375 -0.17396484 16.1825 -0.16042969 17.5 -0.14648438 C20.66708282 -0.11103196 23.83333541 -0.06161441 27 0 C25.11481523 4.07862495 22.38250663 7.02297776 19.3125 10.25 C18.22705863 11.40679638 17.1424205 12.56434697 16.05859375 13.72265625 C15.53378418 14.28227051 15.00897461 14.84188477 14.46826172 15.41845703 C12.01564423 18.06030208 9.65614215 20.78005377 7.3046875 23.51171875 C4.27306512 26.96994668 4.27306512 26.96994668 1.93701172 27.22705078 C0.69588623 27.21134033 0.69588623 27.21134033 -0.5703125 27.1953125 C-1.46621094 27.18886719 -2.36210937 27.18242188 -3.28515625 27.17578125 C-4.22230469 27.15902344 -5.15945313 27.14226563 -6.125 27.125 C-7.06988281 27.11597656 -8.01476562 27.10695313 -8.98828125 27.09765625 C-11.32577292 27.07404522 -13.66276123 27.04111516 -16 27 C-14.71519319 23.56147518 -13.22472403 20.55241574 -11.25 17.4609375 C-10.7240625 16.63335938 -10.198125 15.80578125 -9.65625 14.953125 C-9.1096875 14.10234375 -8.563125 13.2515625 -8 12.375 C-7.4534375 11.51648438 -6.906875 10.65796875 -6.34375 9.7734375 C-4.25510208 6.49712704 -2.15530994 3.23296491 0 0 Z " fill="#FFFFFF" transform="translate(278,916)"/>
</svg>
